<svg width="40" height="40" viewBox="0 0 40 40" fill="none" xmlns="http://www.w3.org/2000/svg">
<path d="M18.4812 20.4281L24.5843 23.325C24.9281 23.4875 25.1687 23.65 25.3062 23.8125C25.4437 23.9688 25.5125 24.1594 25.5125 24.3844C25.5125 24.6469 25.4312 24.8594 25.2687 25.0219C25.1062 25.1844 24.8906 25.2656 24.6218 25.2656C24.5093 25.2656 24.3843 25.2469 24.2468 25.2094C24.1156 25.1719 23.9531 25.1094 23.7593 25.0219L16.3718 21.6188C16.3343 21.6 16.275 21.575 16.1937 21.5438C15.5312 21.2375 15.2 20.8781 15.2 20.4656C15.2 20.0469 15.5468 19.6781 16.2406 19.3594L16.3156 19.3125L23.7593 15.8438C24.0093 15.7313 24.1937 15.6594 24.3125 15.6281C24.4312 15.5906 24.5343 15.5719 24.6218 15.5719C24.8906 15.5719 25.1062 15.6531 25.2687 15.8156C25.4312 15.9781 25.5125 16.1906 25.5125 16.4531C25.5125 16.6781 25.4406 16.875 25.2968 17.0438C25.1593 17.2063 24.9218 17.3688 24.5843 17.5313L18.4812 20.4281Z" fill="#F5F5F5"/>
</svg>
