<svg width="40" height="40" viewBox="0 0 40 40" fill="none" xmlns="http://www.w3.org/2000/svg">
<path d="M18.0416 13.2083C14.8254 13.2083 12.2083 15.8254 12.2083 19.0416C12.2083 22.2578 14.8254 24.8749 18.0416 24.8749C19.2007 24.8749 20.2794 24.5312 21.1884 23.9458L24.9618 27.7192C25.4472 28.2046 26.2342 28.2046 26.7192 27.7192C27.2046 27.2339 27.2046 26.4472 26.7192 25.9618L22.9458 22.1884C23.5312 21.2794 23.8749 20.2007 23.8749 19.0416C23.8749 15.8254 21.2578 13.2083 18.0416 13.2083ZM18.0416 15.5416C19.9713 15.5416 21.5416 17.1119 21.5416 19.0416C21.5416 20.9713 19.9713 22.5416 18.0416 22.5416C16.1119 22.5416 14.5416 20.9713 14.5416 19.0416C14.5416 17.1119 16.1119 15.5416 18.0416 15.5416Z" fill="#F5F5F5"/>
</svg>
